<svg viewBox="0 0 2075 1200" xmlns="http://www.w3.org/2000/svg">
<path d="M37,162 l0,-25 l0,-100 l100,0 l0,75 l-50,0 l0,-25 l25,0 l0,-25 l-50,0 l0,75 l100,0 l0,-100 l100,0 l0,75 l-50,0 l0,-25 l25,0 l0,-25 l-50,0 l0,75 l100,0 l0,-100 l100,0 l0,75 l-50,0 l0,-25 l25,0 l0,-25 l-50,0 l0,75 l100,0 l0,-100 l100,0 l0,75 l-50,0 l0,-25 l25,0 l0,-25 l-50,0 l0,75 l100,0 l0,-100 l100,0 l0,75 l-50,0 l0,-25 l25,0 l0,-25 l-50,0 l0,75 l100,0 l0,-100 l100,0 l0,75 l-50,0 l0,-25 l25,0 l0,-25 l-50,0 l0,75 l100,0 l0,-100 l100,0 l0,75 l-50,0 l0,-25 l25,0 l0,-25 l-50,0 l0,75 l100,0 l0,-100 l100,0 l0,75 l-50,0 l0,-25 l25,0 l0,-25 l-50,0 l0,75 l100,0 l0,-100 l100,0 l0,75 l-50,0 l0,-25 l25,0 l0,-25 l-50,0 l0,75 l100,0 l0,-100 l100,0 l0,75 l-50,0 l0,-25 l25,0 l0,-25 l-50,0 l0,75 l100,0 l0,-100 l100,0 l0,75 l-50,0 l0,-25 l25,0 l0,-25 l-50,0 l0,75 l100,0 l0,-100 l100,0 l0,75 l-50,0 l0,-25 l25,0 l0,-25 l-50,0 l0,75 l100,0 l0,-100 l100,0 l0,75 l-50,0 l0,-25 l25,0 l0,-25 l-50,0 l0,75 l100,0 l0,-100 l100,0 l0,75 l-50,0 l0,-25 l25,0 l0,-25 l-50,0 l0,75 l100,0 l0,-100 l100,0 l0,75 l-50,0 l0,-25 l25,0 l0,-25 l-50,0 l0,75 l100,0 l0,-100 l25,0 l100,0 l0,100 l-75,0 l0,-50 l25,0 l0,25 l25,0 l0,-50 l-75,0 l0,100 l100,0 l0,100 l-75,0 l0,-50 l25,0 l0,25 l25,0 l0,-50 l-75,0 l0,100 l100,0 l0,100 l-75,0 l0,-50 l25,0 l0,25 l25,0 l0,-50 l-75,0 l0,100 l100,0 l0,100 l-75,0 l0,-50 l25,0 l0,25 l25,0 l0,-50 l-75,0 l0,100 l100,0 l0,100 l-75,0 l0,-50 l25,0 l0,25 l25,0 l0,-50 l-75,0 l0,100 l100,0 l0,100 l-75,0 l0,-50 l25,0 l0,25 l25,0 l0,-50 l-75,0 l0,100 l100,0 l0,100 l-75,0 l0,-50 l25,0 l0,25 l25,0 l0,-50 l-75,0 l0,100 l100,0 l0,100 l-75,0 l0,-50 l25,0 l0,25 l25,0 l0,-50 l-75,0 l0,100 l100,0 l0,125 l-100,0 l0,-75 l50,0 l0,25 l-25,0 l0,25 l50,0 l0,-75 l-100,0 l0,100 l-100,0 l0,-75 l50,0 l0,25 l-25,0 l0,25 l50,0 l0,-75 l-100,0 l0,100 l-100,0 l0,-75 l50,0 l0,25 l-25,0 l0,25 l50,0 l0,-75 l-100,0 l0,100 l-100,0 l0,-75 l50,0 l0,25 l-25,0 l0,25 l50,0 l0,-75 l-100,0 l0,100 l-100,0 l0,-75 l50,0 l0,25 l-25,0 l0,25 l50,0 l0,-75 l-100,0 l0,100 l-100,0 l0,-75 l50,0 l0,25 l-25,0 l0,25 l50,0 l0,-75 l-100,0 l0,100 l-100,0 l0,-75 l50,0 l0,25 l-25,0 l0,25 l50,0 l0,-75 l-100,0 l0,100 l-100,0 l0,-75 l50,0 l0,25 l-25,0 l0,25 l50,0 l0,-75 l-100,0 l0,100 l-100,0 l0,-75 l50,0 l0,25 l-25,0 l0,25 l50,0 l0,-75 l-100,0 l0,100 l-100,0 l0,-75 l50,0 l0,25 l-25,0 l0,25 l50,0 l0,-75 l-100,0 l0,100 l-100,0 l0,-75 l50,0 l0,25 l-25,0 l0,25 l50,0 l0,-75 l-100,0 l0,100 l-100,0 l0,-75 l50,0 l0,25 l-25,0 l0,25 l50,0 l0,-75 l-100,0 l0,100 l-100,0 l0,-75 l50,0 l0,25 l-25,0 l0,25 l50,0 l0,-75 l-100,0 l0,100 l-100,0 l0,-75 l50,0 l0,25 l-25,0 l0,25 l50,0 l0,-75 l-100,0 l0,100 l-100,0 l0,-75 l50,0 l0,25 l-25,0 l0,25 l50,0 l0,-75 l-100,0 l0,100 l-125,0 l0,-100 l75,0 l0,50 l-25,0 l0,-25 l-25,0 l0,50 l75,0 l0,-100 l-100,0 l0,-100 l75,0 l0,50 l-25,0 l0,-25 l-25,0 l0,50 l75,0 l0,-100 l-100,0 l0,-100 l75,0 l0,50 l-25,0 l0,-25 l-25,0 l0,50 l75,0 l0,-100 l-100,0 l0,-100 l75,0 l0,50 l-25,0 l0,-25 l-25,0 l0,50 l75,0 l0,-100 l-100,0 l0,-100 l75,0 l0,50 l-25,0 l0,-25 l-25,0 l0,50 l75,0 l0,-100 l-100,0 l0,-100 l75,0 l0,50 l-25,0 l0,-25 l-25,0 l0,50 l75,0 l0,-100 l-100,0 l0,-100 l75,0 l0,50 l-25,0 l0,-25 l-25,0 l0,50 l75,0 l0,-100 l-100,0 l0,-100 l75,0 l0,50 l-25,0 l0,-25 l-25,0 l0,50 l75,0 l0,-100 l-100,0 z" fill="none" stroke="#AB8E0E" stroke-opacity="0.7" stroke-width="6"/>
<path d="M12,12 l2050,0 l0,1175 l-2050,0 z" fill="none" stroke="#AB8E0E" stroke-opacity="0.7" stroke-width="6"/>
<path d="M162,162 l1750,0 l0,875 l-1750,0 z" fill="none" stroke="#AB8E0E" stroke-opacity="0.7" stroke-width="6"/>
</svg>