<svg viewBox="0 0 318 318" xmlns="http://www.w3.org/2000/svg">
<rect fill="#1E251D" height="318" width="318"/>
<path d="M159,34.654594 L159,10.1309185 L185.5816,12.523306 L182.29745,30.620483 L170.6958,29.048935 L171.24538,22.942698 L177.33723,23.629084 L178.16022,17.553652 L165.40393,16.405565 L164.57874,34.7798 L186.66945,37.772194 L192.12648,13.863378 L217.50928,22.110744 L210.28046,39.023396 L199.3194,34.90964 L201.21396,29.07879 L207.00035,31.103535 L209.1546,25.363554 L196.97362,21.405712 L192.08046,39.135647 L212.95145,46.96866 L223.59187,24.873592 L246.50305,38.56238 L235.69206,53.442436 L225.92122,46.992756 L229.06575,41.729675 L234.25652,44.99125 L237.63402,39.874546 L226.63914,33.305412 L217.92339,49.50199 L236.52809,61.78285 L251.81836,42.609467 L271.10907,61.053265 L257.258,73.15457 L249.16731,64.69238 L253.40416,60.260986 L257.739,64.59583 L262.1704,60.358986 L252.91296,51.50796 L240.81166,65.359024 L256.21716,81.47191 L275.39053,66.18165 L290.09344,88.455605 L273.89688,97.17136 L267.89206,87.12099 L273.00876,83.743484 L276.27032,88.93424 L281.53342,85.7897 L274.4776,75.10062 L259.59753,85.911606 L271.03134,105.04855 L293.1264,94.40813 L302.50427,119.39534 L284.77432,124.28849 L281.1565,113.15391 L286.89645,110.99966 L288.9212,116.78604 L294.75204,114.89148 L290.2517,102.90033 L273.33905,110.12914 L280.2278,131.33055 L304.13663,125.87351 L307.71918,152.32101 L289.34494,153.1462 L288.29547,141.48573 L294.3709,140.66277 L295.0573,146.75462 L301.16354,146.20505 L299.4443,133.51312 L281.34714,136.79727 L283.3454,159 L307.86908,159 L305.47668,185.5816 L287.37952,182.29745 L288.95108,170.6958 L295.0573,171.24538 L294.3709,177.33723 L300.44635,178.16022 L301.59442,165.40393 L283.22018,164.57874 L280.2278,186.66945 L304.13663,192.12648 L295.88925,217.50928 L278.9766,210.28046 L283.09036,199.3194 L288.9212,201.21396 L286.89645,207.00035 L292.63644,209.1546 L296.5943,196.97362 L278.86435,192.08046 L271.03134,212.95145 L293.1264,223.59187 L279.43762,246.50305 L264.55756,235.69206 L271.00723,225.92122 L276.27032,229.06575 L273.00876,234.25652 L278.12546,237.63402 L284.69458,226.63914 L268.49802,217.92339 L256.21716,236.52809 L275.39053,251.81836 L256.94675,271.10907 L244.84543,257.258 L253.30762,249.16731 L257.739,253.40416 L253.40416,257.739 L257.64102,262.1704 L266.49203,252.91296 L252.64098,240.81166 L236.52809,256.21716 L251.81836,275.39053 L229.54439,290.09344 L220.82864,273.89688 L230.87901,267.89206 L234.25652,273.00876 L229.06575,276.27032 L232.2103,281.53342 L242.89938,274.4776 L232.0884,259.59753 L212.95145,271.03134 L223.59187,293.1264 L198.60466,302.50427 L193.71152,284.77432 L204.8461,281.1565 L207.00035,286.89645 L201.21396,288.9212 L203.10852,294.75204 L215.09967,290.2517 L207.87085,273.33905 L186.66945,280.2278 L192.12648,304.13663 L165.67899,307.71918 L164.8538,289.34494 L176.51427,288.29547 L177.33723,294.3709 L171.24538,295.0573 L171.79495,301.16354 L184.48688,299.4443 L181.20273,281.34714 L159,283.3454 L159,307.86908 L132.4184,305.47668 L135.70255,287.37952 L147.3042,288.95108 L146.75462,295.0573 L140.66277,294.3709 L139.83978,300.44635 L152.59607,301.59442 L153.42126,283.22018 L131.33055,280.2278 L125.87351,304.13663 L100.49072,295.88925 L107.719536,278.9766 L118.680595,283.09036 L116.78604,288.9212 L110.99966,286.89645 L108.845406,292.63644 L121.02639,296.5943 L125.91954,278.86435 L105.04855,271.03134 L94.40813,293.1264 L71.49695,279.43762 L82.30794,264.55756 L92.07879,271.00723 L88.93424,276.27032 L83.743484,273.00876 L80.365974,278.12546 L91.360855,284.69458 L100.07661,268.49802 L81.47191,256.21716 L66.18165,275.39053 L46.89094,256.94675 L60.742004,244.84543 L68.83269,253.30762 L64.59583,257.739 L60.260986,253.40416 L55.82959,257.64102 L65.087036,266.49203 L77.18834,252.64098 L61.78285,236.52809 L42.609467,251.81836 L27.906551,229.54439 L44.10313,220.82864 L50.10795,230.87901 L44.99125,234.25652 L41.729675,229.06575 L36.4666,232.2103 L43.5224,242.89938 L58.402454,232.0884 L46.96866,212.95145 L24.873592,223.59187 L15.495734,198.60466 L33.22567,193.71152 L36.843513,204.8461 L31.103535,207.00035 L29.07879,201.21396 L23.24794,203.10852 L27.748295,215.09967 L44.660946,207.87085 L37.772194,186.66945 L13.863378,192.12648 L10.28082,165.67899 L28.655056,164.8538 L29.704517,176.51427 L23.629084,177.33723 L22.942698,171.24538 L16.83646,171.79495 L18.555698,184.48688 L36.652874,181.20273 L34.654594,159 L10.1309185,159 L12.523306,132.4184 L30.620483,135.70255 L29.048935,147.3042 L22.942698,146.75462 L23.629084,140.66277 L17.553652,139.83978 L16.405565,152.59607 L34.7798,153.42126 L37.772194,131.33055 L13.863378,125.87351 L22.110744,100.49072 L39.023396,107.719536 L34.90964,118.680595 L29.07879,116.78604 L31.103535,110.99966 L25.363554,108.845406 L21.405712,121.02639 L39.135647,125.91954 L46.96866,105.04855 L24.873592,94.40813 L38.56238,71.49695 L53.442436,82.30794 L46.992756,92.07879 L41.729675,88.93424 L44.99125,83.743484 L39.874546,80.365974 L33.305412,91.360855 L49.50199,100.07661 L61.78285,81.47191 L42.609467,66.18165 L61.053265,46.89094 L73.15457,60.742004 L64.69238,68.83269 L60.260986,64.59583 L64.59583,60.260986 L60.358986,55.82959 L51.50796,65.087036 L65.359024,77.18834 L81.47191,61.78285 L66.18165,42.609467 L88.455605,27.906551 L97.17136,44.10313 L87.12099,50.10795 L83.743484,44.99125 L88.93424,41.729675 L85.7897,36.4666 L75.10062,43.5224 L85.911606,58.402454 L105.04855,46.96866 L94.40813,24.873592 L119.39534,15.495734 L124.28849,33.22567 L113.15391,36.843513 L110.99966,31.103535 L116.78604,29.07879 L114.89148,23.24794 L102.90033,27.748295 L110.12914,44.660946 L131.33055,37.772194 L125.87351,13.863378 L152.32101,10.28082 L153.1462,28.655056 L141.48573,29.704517 L140.66277,23.629084 L146.75462,22.942698 L146.20505,16.83646 L133.51312,18.555698 L136.79727,36.652874 L159,34.654594 z" fill="#F2DED1" stroke="#7C3B2E" stroke-dasharray="7,3" stroke-opacity="0.85" stroke-width="3"/>
<circle cx="159" cy="159" fill="none" r="118.21448743260414" stroke="#7C3B2E" stroke-dasharray="7,3" stroke-opacity="0.85" stroke-width="3"/>
<circle cx="159" cy="159" fill="none" r="155" stroke="#7C3B2E" stroke-dasharray="7,3" stroke-opacity="0.85" stroke-width="3"/>
</svg>