<svg viewBox="0 0 1156 666" xmlns="http://www.w3.org/2000/svg">
<rect fill="#182026" height="666" width="1156"/>
<path d="M18,88 l0,-14 l0,-56 l56,0 l0,42 l-28,0 l0,-14 l14,0 l0,-14 l-28,0 l0,42 l56,0 l0,-56 l56,0 l0,42 l-28,0 l0,-14 l14,0 l0,-14 l-28,0 l0,42 l56,0 l0,-56 l56,0 l0,42 l-28,0 l0,-14 l14,0 l0,-14 l-28,0 l0,42 l56,0 l0,-56 l56,0 l0,42 l-28,0 l0,-14 l14,0 l0,-14 l-28,0 l0,42 l56,0 l0,-56 l56,0 l0,42 l-28,0 l0,-14 l14,0 l0,-14 l-28,0 l0,42 l56,0 l0,-56 l56,0 l0,42 l-28,0 l0,-14 l14,0 l0,-14 l-28,0 l0,42 l56,0 l0,-56 l56,0 l0,42 l-28,0 l0,-14 l14,0 l0,-14 l-28,0 l0,42 l56,0 l0,-56 l56,0 l0,42 l-28,0 l0,-14 l14,0 l0,-14 l-28,0 l0,42 l56,0 l0,-56 l56,0 l0,42 l-28,0 l0,-14 l14,0 l0,-14 l-28,0 l0,42 l56,0 l0,-56 l56,0 l0,42 l-28,0 l0,-14 l14,0 l0,-14 l-28,0 l0,42 l56,0 l0,-56 l56,0 l0,42 l-28,0 l0,-14 l14,0 l0,-14 l-28,0 l0,42 l56,0 l0,-56 l56,0 l0,42 l-28,0 l0,-14 l14,0 l0,-14 l-28,0 l0,42 l56,0 l0,-56 l56,0 l0,42 l-28,0 l0,-14 l14,0 l0,-14 l-28,0 l0,42 l56,0 l0,-56 l56,0 l0,42 l-28,0 l0,-14 l14,0 l0,-14 l-28,0 l0,42 l56,0 l0,-56 l56,0 l0,42 l-28,0 l0,-14 l14,0 l0,-14 l-28,0 l0,42 l56,0 l0,-56 l14,0 l56,0 l0,56 l-42,0 l0,-28 l14,0 l0,14 l14,0 l0,-28 l-42,0 l0,56 l56,0 l0,56 l-42,0 l0,-28 l14,0 l0,14 l14,0 l0,-28 l-42,0 l0,56 l56,0 l0,56 l-42,0 l0,-28 l14,0 l0,14 l14,0 l0,-28 l-42,0 l0,56 l56,0 l0,56 l-42,0 l0,-28 l14,0 l0,14 l14,0 l0,-28 l-42,0 l0,56 l56,0 l0,56 l-42,0 l0,-28 l14,0 l0,14 l14,0 l0,-28 l-42,0 l0,56 l56,0 l0,56 l-42,0 l0,-28 l14,0 l0,14 l14,0 l0,-28 l-42,0 l0,56 l56,0 l0,56 l-42,0 l0,-28 l14,0 l0,14 l14,0 l0,-28 l-42,0 l0,56 l56,0 l0,56 l-42,0 l0,-28 l14,0 l0,14 l14,0 l0,-28 l-42,0 l0,56 l56,0 l0,70 l-56,0 l0,-42 l28,0 l0,14 l-14,0 l0,14 l28,0 l0,-42 l-56,0 l0,56 l-56,0 l0,-42 l28,0 l0,14 l-14,0 l0,14 l28,0 l0,-42 l-56,0 l0,56 l-56,0 l0,-42 l28,0 l0,14 l-14,0 l0,14 l28,0 l0,-42 l-56,0 l0,56 l-56,0 l0,-42 l28,0 l0,14 l-14,0 l0,14 l28,0 l0,-42 l-56,0 l0,56 l-56,0 l0,-42 l28,0 l0,14 l-14,0 l0,14 l28,0 l0,-42 l-56,0 l0,56 l-56,0 l0,-42 l28,0 l0,14 l-14,0 l0,14 l28,0 l0,-42 l-56,0 l0,56 l-56,0 l0,-42 l28,0 l0,14 l-14,0 l0,14 l28,0 l0,-42 l-56,0 l0,56 l-56,0 l0,-42 l28,0 l0,14 l-14,0 l0,14 l28,0 l0,-42 l-56,0 l0,56 l-56,0 l0,-42 l28,0 l0,14 l-14,0 l0,14 l28,0 l0,-42 l-56,0 l0,56 l-56,0 l0,-42 l28,0 l0,14 l-14,0 l0,14 l28,0 l0,-42 l-56,0 l0,56 l-56,0 l0,-42 l28,0 l0,14 l-14,0 l0,14 l28,0 l0,-42 l-56,0 l0,56 l-56,0 l0,-42 l28,0 l0,14 l-14,0 l0,14 l28,0 l0,-42 l-56,0 l0,56 l-56,0 l0,-42 l28,0 l0,14 l-14,0 l0,14 l28,0 l0,-42 l-56,0 l0,56 l-56,0 l0,-42 l28,0 l0,14 l-14,0 l0,14 l28,0 l0,-42 l-56,0 l0,56 l-56,0 l0,-42 l28,0 l0,14 l-14,0 l0,14 l28,0 l0,-42 l-56,0 l0,56 l-70,0 l0,-56 l42,0 l0,28 l-14,0 l0,-14 l-14,0 l0,28 l42,0 l0,-56 l-56,0 l0,-56 l42,0 l0,28 l-14,0 l0,-14 l-14,0 l0,28 l42,0 l0,-56 l-56,0 l0,-56 l42,0 l0,28 l-14,0 l0,-14 l-14,0 l0,28 l42,0 l0,-56 l-56,0 l0,-56 l42,0 l0,28 l-14,0 l0,-14 l-14,0 l0,28 l42,0 l0,-56 l-56,0 l0,-56 l42,0 l0,28 l-14,0 l0,-14 l-14,0 l0,28 l42,0 l0,-56 l-56,0 l0,-56 l42,0 l0,28 l-14,0 l0,-14 l-14,0 l0,28 l42,0 l0,-56 l-56,0 l0,-56 l42,0 l0,28 l-14,0 l0,-14 l-14,0 l0,28 l42,0 l0,-56 l-56,0 l0,-56 l42,0 l0,28 l-14,0 l0,-14 l-14,0 l0,28 l42,0 l0,-56 l-56,0 z" fill="#DCEFF4" stroke="#1F5B73" stroke-dasharray="10,5" stroke-opacity="0.9" stroke-width="3"/>
<path d="M4,4 l1148,0 l0,658 l-1148,0 z" fill="none" stroke="#1F5B73" stroke-dasharray="10,5" stroke-opacity="0.9" stroke-width="3"/>
<path d="M88,88 l980,0 l0,490 l-980,0 z" fill="none" stroke="#1F5B73" stroke-dasharray="10,5" stroke-opacity="0.9" stroke-width="3"/>
</svg>