<svg viewBox="0 0 614 614" xmlns="http://www.w3.org/2000/svg">
<path d="M307,62.817604 L307,18.16352 L355.16888,22.208376 L349.5837,55.22994 L328.3668,52.549618 L329.30093,41.42525 L340.4025,42.59207 L341.80164,31.516577 L318.62775,29.570608 L317.2253,63.031796 L357.76837,68.15358 L367.0525,24.47529 L413.3278,38.446632 L400.9991,69.58537 L380.8031,62.552376 L384.0297,51.86532 L394.64606,55.314785 L398.31738,44.77222 L376.05444,38.050648 L367.72568,70.489044 L406.31793,83.92828 L424.48038,43.134747 L466.83966,66.42196 L448.30627,94.31696 L430.01382,83.23867 L435.3919,73.456 L445.05908,79.03735 L450.8421,69.48848 L430.46317,58.285065 L415.57208,88.28296 L450.52682,109.45229 L476.77383,73.32638 L513.3658,104.911705 L489.43768,128.34383 L473.8483,113.70441 L481.14276,105.25368 L489.43826,112.722984 L497.08023,104.58513 L479.47595,89.38952 L458.67334,115.63586 L488.4629,143.61009 L521.64734,113.730675 L550.8727,152.23367 L522.5957,170.17882 L510.39066,152.61809 L519.2827,145.86864 L525.844,154.89944 L535.0109,148.52827 L520.9507,130.0046 L495.14578,151.35228 L518.46814,184.9088 L557.1397,162.58176 L577.72125,206.31967 L546.3311,217.99355 L538.0439,198.27899 L548.14496,193.5258 L552.68524,203.72343 L562.97644,199.3974 L553.07477,178.35522 L523.3953,193.87126 L539.23126,231.54349 L581.6998,217.74461 L592.7379,264.80588 L559.6066,269.6983 L555.5994,248.69154 L566.46796,246.14233 L568.7888,257.0611 L579.7546,254.96927 L574.4442,232.32823 L542.1873,241.33452 L549.8447,281.47598 L594.2542,276.80838 L595.26654,325.1362 L561.84204,323.0333 L562.2899,301.65244 L573.451,301.41864 L573.451,312.58136 L584.61206,312.81516 L584.12506,289.56476 L550.70056,291.66766 L549.8447,332.52402 L594.2542,337.19162 L585.1965,384.67386 L552.93964,375.66757 L557.82306,354.84705 L568.7888,356.9389 L566.46796,367.85767 L577.33655,370.40686 L581.69415,347.5633 L548.56287,342.6709 L539.23126,382.4565 L581.6998,396.25537 L562.9679,440.8168 L533.28845,425.30075 L542.394,405.95053 L552.68524,410.27655 L548.14496,420.4742 L558.24603,425.2274 L567.2579,403.78903 L535.86774,392.11514 L518.46814,429.0912 L557.1397,451.41824 L529.5523,491.1113 L503.7474,469.7636 L516.6771,452.72937 L525.844,459.10056 L519.2827,468.13138 L528.1748,474.88083 L541.447,455.7846 L513.17004,437.83948 L488.4629,470.38992 L521.64734,500.26932 L486.41013,533.35925 L465.60754,507.1129 L481.7963,493.13916 L489.43826,501.277 L481.14276,508.74634 L488.43723,517.1971 L505.38974,501.2776 L481.46164,477.84546 L450.52682,504.5477 L476.77383,540.67365 L435.42685,565.71423 L420.53577,535.7164 L439.2761,525.41376 L445.05908,534.96265 L435.3919,540.544 L440.76996,550.32666 L460.66187,538.2797 L442.12848,510.3847 L406.31793,530.0717 L424.48038,570.86523 L378.83072,586.76215 L370.50195,554.3237 L390.97476,548.14264 L394.64606,558.68524 L384.0297,562.1347 L387.25632,572.8217 L409.21823,565.17377 L396.88953,534.03503 L357.76837,545.84644 L367.0525,589.5247 L319.0952,595.5831 L317.69278,562.12195 L339.00333,560.33246 L340.4025,571.40796 L329.30093,572.57477 L330.23508,583.6991 L353.30716,580.7844 L347.722,547.7629 L307,551.1824 L307,595.8365 L258.83112,591.7916 L264.4163,558.7701 L285.6332,561.4504 L284.69907,572.57477 L273.5975,571.40796 L272.19836,582.4834 L295.37225,584.4294 L296.7747,550.9682 L256.23163,545.84644 L246.94753,589.5247 L200.6722,575.55334 L213.0009,544.4146 L233.19691,551.44763 L229.97029,562.1347 L219.35394,558.68524 L215.68263,569.2278 L237.94554,575.94934 L246.2743,543.5109 L207.68207,530.0717 L189.51962,570.86523 L147.16034,547.57806 L165.69373,519.68304 L183.98616,530.76135 L178.6081,540.544 L168.94092,534.96265 L163.15791,544.51154 L183.53683,555.7149 L198.42792,525.71704 L163.47319,504.5477 L137.22618,540.67365 L100.634224,509.0883 L124.56232,485.6562 L140.15172,500.2956 L132.85724,508.74634 L124.56174,501.277 L116.91978,509.4149 L134.52406,524.6105 L155.32664,498.36414 L125.53712,470.38992 L92.35267,500.26932 L63.127296,461.76633 L91.40431,443.8212 L103.60934,461.38193 L94.71726,468.13138 L88.15599,459.10056 L78.98907,465.4717 L93.04931,483.9954 L118.85423,462.6477 L95.531845,429.0912 L56.86027,451.41824 L36.27877,407.68033 L67.66887,396.00644 L75.95611,415.721 L65.85505,420.4742 L61.31477,410.27655 L51.023533,414.6026 L60.925232,435.64478 L90.60469,420.12872 L74.768745,382.4565 L32.300186,396.25537 L21.262062,349.19412 L54.393353,344.3017 L58.400604,365.30847 L47.532036,367.85767 L45.211178,356.9389 L34.245396,359.03073 L39.5558,381.67175 L71.81266,372.6655 L64.155266,332.52402 L19.745798,337.19162 L18.733475,288.8638 L52.15795,290.9667 L51.710087,312.34756 L40.549015,312.58136 L40.549015,301.41864 L29.387941,301.18484 L29.874966,324.43524 L63.299442,322.33234 L64.155266,281.47598 L19.745798,276.80838 L28.803516,229.32614 L61.06037,238.33243 L56.176964,259.15295 L45.211178,257.0611 L47.532036,246.14233 L36.663467,243.59314 L32.305824,266.4367 L65.43711,271.3291 L74.768745,231.54349 L32.300186,217.74461 L51.032078,173.1832 L80.71153,188.69925 L71.60601,208.04948 L61.31477,203.72343 L65.85505,193.5258 L55.753998,188.7726 L46.742138,210.21097 L78.13224,221.88484 L95.531845,184.9088 L56.86027,162.58176 L84.44767,122.8887 L110.252594,144.23639 L97.32291,161.27061 L88.15599,154.89944 L94.71726,145.86864 L85.82518,139.11917 L72.55297,158.2154 L100.82999,176.16054 L125.53712,143.61009 L92.35267,113.730675 L127.58986,80.64074 L148.39246,106.88708 L132.20369,120.86084 L124.56174,112.722984 L132.85724,105.25368 L125.56277,96.80294 L108.61026,112.72241 L132.53835,136.15453 L163.47319,109.45229 L137.22618,73.32638 L178.57314,48.28577 L193.46422,78.28366 L174.72392,88.58623 L168.94092,79.03735 L178.6081,73.456 L173.23003,63.673332 L153.33813,75.7203 L171.87152,103.615295 L207.68207,83.92828 L189.51962,43.134747 L235.1693,27.23785 L243.49805,59.676247 L223.02524,65.85735 L219.35394,55.314785 L229.97029,51.86532 L226.74368,41.178265 L204.78177,48.826214 L217.11046,79.96495 L256.23163,68.15358 L246.94753,24.47529 L294.9048,18.41688 L296.30722,51.878067 L274.99667,53.667564 L273.5975,42.59207 L284.69907,41.42525 L283.76492,30.30088 L260.69284,33.215565 L266.278,66.23713 L307,62.817604 z" fill="none" stroke="green" stroke-opacity="0.7" stroke-width="6"/>
<circle cx="307" cy="307" fill="none" r="233.01887297720418" stroke="green" stroke-opacity="0.7" stroke-width="6"/>
<circle cx="307" cy="307" fill="none" r="300" stroke="green" stroke-opacity="0.7" stroke-width="6"/>
</svg>